Coordinates
nRows=4
nColumns=38

# SIMM Motion File Header:
name Coordinates
datacolumns 38
datarows 4
otherdata 1
range 1.75299999999999990000 1.75599999999999980000

Units are S.I. units (second, meters, Newtons, ...)
Angles are in degrees.

endheader
time	pelvis_tilt	pelvis_list	pelvis_rotation	pelvis_tx	pelvis_ty	pelvis_tz	hip_flexion_r	hip_adduction_r	hip_rotation_r	knee_angle_r	ankle_angle_r	subtalar_angle_r	mtp_angle_r	hip_flexion_l	hip_adduction_l	hip_rotation_l	knee_angle_l	ankle_angle_l	subtalar_angle_l	mtp_angle_l	lumbar_extension	lumbar_bending	lumbar_rotation	arm_flex_r	arm_add_r	arm_rot_r	elbow_flex_r	pro_sup_r	wrist_flex_r	wrist_dev_r	arm_flex_l	arm_add_l	arm_rot_l	elbow_flex_l	pro_sup_l	wrist_flex_l	wrist_dev_l
      1.75299999999999990000	     -6.71262868512834740000	     -0.34823015727739060000	      3.62231570670430440000	      0.71996545550244384000	      1.04615243306260970000	     -0.33356658876574485000	     27.68839852960344000000	      2.23659509417224280000	     -4.62956832980507380000	    -15.16843515580754000000	    -15.63057411935520600000	      0.00000000000000000000	      0.00000000000000000000	     -7.13944955756493550000	      2.19968363383221770000	     -2.50020013382554350000	    -42.16358132384645800000	    -23.86191844683622100000	      0.00000000000000000000	      0.00000000000000000000	     -1.16683958512863660000	      1.89552667131958950000	    -14.37808685151210500000	    -33.96758447686519100000	    -19.61334700332714900000	     -5.60856505639452950000	     74.92770209308714900000	     79.31385011768928500000	      0.00000000000000000000	      0.00000000000000000000	     -3.74922572000607610000	    -32.36526126411076400000	     23.77920618142793800000	    119.44482468076795000000	     80.03164013338029300000	      0.00000000000000000000	      0.00000000000000000000
      1.75399999999999980000	     -6.69678275996280090000	     -0.35152759496402602000	      3.60403446971428430000	      0.72002028438148669000	      1.04575511536859270000	     -0.33348830494499565000	     27.62672599133176700000	      2.25492362268680640000	     -4.85633175650369520000	    -15.10893387530256700000	    -15.75030867542646900000	      0.00000000000000000072	     -0.00000000000000000047	     -7.02137549170115700000	      2.18210235742193510000	     -2.50094060757070210000	    -42.66400573385658400000	    -23.79590479707216100000	     -0.00000000000000000056	      0.00000000000000000036	     -1.16393270670175840000	      1.91088285948397200000	    -14.32707565348210300000	    -33.93453533237443100000	    -19.59773790186176300000	     -5.66440035065283090000	     74.88779817083732800000	     79.22016048413476600000	     -0.00000000000000000014	     -0.00000000000000000031	     -3.83826439232655180000	    -32.36198117954716500000	     23.78100784923838500000	    119.29025507331021000000	     79.98063629676516900000	     -0.00000000000000000045	     -0.00000000000000000104
      1.75499999999999990000	     -6.68057517390124910000	     -0.35660267553153424000	      3.58517517925643640000	      0.72007373899912741000	      1.04534832121003900000	     -0.33340865284930188000	     27.56653297781262400000	      2.27555806720229100000	     -5.08122156077223150000	    -15.06003857988053900000	    -15.86309192810250800000	      0.00000000000000000171	     -0.00000000000000000193	     -6.90142304963499060000	      2.16151940733142210000	     -2.50616641615645230000	    -43.16704591629402900000	    -23.72778714313046000000	     -0.00000000000000000141	      0.00000000000000000065	     -1.16144112822924980000	      1.92850702352175520000	    -14.27488254618977600000	    -33.90044769630205900000	    -19.58267954675659800000	     -5.72002292265543750000	     74.84744095680962100000	     79.12633552075607200000	     -0.00000000000000000118	     -0.00000000000000000124	     -3.92844737712203340000	    -32.35756933047041900000	     23.78168369634383300000	    119.13309447075342000000	     79.92677571521328200000	     -0.00000000000000000099	     -0.00000000000000000212
      1.75599999999999980000	     -6.66404014921006560000	     -0.36345184424990190000	      3.56567697564656380000	      0.72012579761582118000	      1.04493208488861860000	     -0.33332760243372089000	     27.50788707677280300000	      2.29845797538802940000	     -5.30423006417918600000	    -15.02181722242844100000	    -15.97133169654257400000	      0.00000000000000000191	     -0.00000000000000000114	     -6.77960612103175200000	      2.13794022660530470000	     -2.51583933874300800000	    -43.67256155628439300000	    -23.65744607020978700000	     -0.00000000000000000249	      0.00000000000000000016	     -1.15933270039441670000	      1.94840492957610410000	    -14.22144621579476500000	    -33.86533461653422000000	    -19.56818459707414300000	     -5.77545497518940200000	     74.80666103549199900000	     79.03246881349731700000	     -0.00000000000000000232	     -0.00000000000000000296	     -4.01973838532907560000	    -32.35202750675161800000	     23.78124179566732400000	    118.97335761987462000000	     79.87032118172277300000	     -0.00000000000000000122	     -0.00000000000000000291
